<svg width="200" height="50" viewBox="0 0 200 50" fill="none" xmlns="http://www.w3.org/2000/svg">
  <!-- Medical Cross Icon -->
  <path d="M12 8H18V14H24V20H18V26H12V20H6V14H12V8Z" fill="url(#gradient1)" />
  <path d="M12 8H18V14H24V20H18V26H12V20H6V14H12V8Z" fill="url(#gradient2)" opacity="0.8" />
  
  <!-- Flow Wave -->
  <path d="M30 25C32 20, 36 20, 38 25C40 30, 44 30, 46 25" stroke="url(#gradient1)" stroke-width="2" fill="none" stroke-linecap="round"/>
  <path d="M30 30C32 25, 36 25, 38 30C40 35, 44 35, 46 30" stroke="url(#gradient2)" stroke-width="2" fill="none" stroke-linecap="round" opacity="0.7"/>
  
  <!-- Text -->
  <text x="55" y="20" font-family="Arial" font-size="16" font-weight="bold" fill="url(#gradient1)">MedFlow</text>
  <text x="55" y="35" font-family="Arial" font-size="12" fill="url(#gradient2)">Monitor</text>
  
  <!-- Gradients -->
  <defs>
    <linearGradient id="gradient1" x1="0%" y1="0%" x2="100%" y2="0%">
      <stop offset="0%" style="stop-color:#0066CC;stop-opacity:1" />
      <stop offset="100%" style="stop-color:#00A3BF;stop-opacity:1" />
    </linearGradient>
    <linearGradient id="gradient2" x1="0%" y1="0%" x2="100%" y2="0%">
      <stop offset="0%" style="stop-color:#00A3BF;stop-opacity:1" />
      <stop offset="100%" style="stop-color:#6366F1;stop-opacity:1" />
    </linearGradient>
  </defs>
</svg>



